REM DIRINDEX 1\2,1\3
REM DIRNAME folder01,folder02,folder03
TITLE ""
FILE "DISC1Track10.mp3" MP3
  TRACK 01 AUDIO
    TITLE "0:"
    INDEX 01 00:00:00
  TRACK 02 AUDIO
    TITLE "3:cjc133_0416"
    INDEX 01 00:00:15
  TRACK 03 AUDIO
    TITLE "0:"
    INDEX 01 00:01:05
  TRACK 04 AUDIO
    TITLE "2:cjc133_0417"
    INDEX 01 00:01:58
  TRACK 05 AUDIO
    TITLE "2:cjc133_0418"
    INDEX 01 00:05:12
  TRACK 06 AUDIO
    TITLE "2:cjc133_0419"
    INDEX 01 00:08:11
  TRACK 07 AUDIO
    TITLE "0:"
    INDEX 01 00:10:14
  TRACK 08 AUDIO
    TITLE "2:cjc133_0420"
    INDEX 01 00:10:65
  TRACK 09 AUDIO
    TITLE "2:cjc133_0421"
    INDEX 01 00:13:26
  TRACK 10 AUDIO
    TITLE "2:cjc133_0422"
    INDEX 01 00:16:44
  TRACK 11 AUDIO
    TITLE "0:"
    INDEX 01 00:18:68
  TRACK 12 AUDIO
    TITLE "2:cjc133_0423"
    INDEX 01 00:19:40
  TRACK 13 AUDIO
    TITLE "2:cjc133_0424"
    INDEX 01 00:21:47
  TRACK 14 AUDIO
    TITLE "2:cjc133_0425"
    INDEX 01 00:24:55
  TRACK 15 AUDIO
    TITLE "0:"
    INDEX 01 00:26:71
  TRACK 16 AUDIO
    TITLE "2:cjc133_0426"
    INDEX 01 00:27:47
  TRACK 17 AUDIO
    TITLE "2:cjc133_0427"
    INDEX 01 00:29:56
  TRACK 18 AUDIO
    TITLE "2:cjc133_0428"
    INDEX 01 00:32:39
  TRACK 19 AUDIO
    TITLE "0:"
    INDEX 01 00:34:38
  TRACK 20 AUDIO
    TITLE "2:cjc133_0429"
    INDEX 01 00:35:15
  TRACK 21 AUDIO
    TITLE "2:cjc133_0430"
    INDEX 01 00:37:08
  TRACK 22 AUDIO
    TITLE "2:cjc133_0431"
    INDEX 01 00:40:09
  TRACK 23 AUDIO
    TITLE "0:"
    INDEX 01 00:42:25
  TRACK 24 AUDIO
    TITLE "2:cjc133_0432"
    INDEX 01 00:43:03
  TRACK 25 AUDIO
    TITLE "2:cjc133_0433"
    INDEX 01 00:45:08
  TRACK 26 AUDIO
    TITLE "2:cjc133_0434"
    INDEX 01 00:48:08
  TRACK 27 AUDIO
    TITLE "0:"
    INDEX 01 00:50:17
  TRACK 28 AUDIO
    TITLE "2:cjc133_0435"
    INDEX 01 00:50:70
  TRACK 29 AUDIO
    TITLE "2:cjc133_0436"
    INDEX 01 00:53:25
  TRACK 30 AUDIO
    TITLE "2:cjc133_0437"
    INDEX 01 00:56:41
  TRACK 31 AUDIO
    TITLE "0:"
    INDEX 01 00:58:67
  TRACK 32 AUDIO
    TITLE "2:cjc133_0438"
    INDEX 01 00:59:43
  TRACK 33 AUDIO
    TITLE "2:cjc133_0439"
    INDEX 01 01:02:05
  TRACK 34 AUDIO
    TITLE "2:cjc133_0440"
    INDEX 01 01:05:21
  TRACK 35 AUDIO
    TITLE "0:"
    INDEX 01 01:07:43
  TRACK 36 AUDIO
    TITLE "2:cjc133_0441"
    INDEX 01 01:08:21
  TRACK 37 AUDIO
    TITLE "2:cjc133_0442"
    INDEX 01 01:11:03
  TRACK 38 AUDIO
    TITLE "2:cjc133_0443"
    INDEX 01 01:14:49
  TRACK 39 AUDIO
    TITLE "0:"
    INDEX 01 01:17:26
  TRACK 40 AUDIO
    TITLE "2:cjc133_0444"
    INDEX 01 01:18:04
  TRACK 41 AUDIO
    TITLE "2:cjc133_0445"
    INDEX 01 01:20:73
  TRACK 42 AUDIO
    TITLE "2:cjc133_0446"
    INDEX 01 01:25:13
  TRACK 43 AUDIO
    TITLE "0:"
    INDEX 01 01:28:35
  TRACK 44 AUDIO
    TITLE "2:cjc133_0447"
    INDEX 01 01:29:11
  TRACK 45 AUDIO
    TITLE "2:cjc133_0448"
    INDEX 01 01:31:73
  TRACK 46 AUDIO
    TITLE "2:cjc133_0449"
    INDEX 01 01:35:16
  TRACK 47 AUDIO
    TITLE "0:"
    INDEX 01 01:37:44
  TRACK 48 AUDIO
    TITLE "2:cjc133_0450"
    INDEX 01 01:38:18
  TRACK 49 AUDIO
    TITLE "2:cjc133_0451"
    INDEX 01 01:41:05
  TRACK 50 AUDIO
    TITLE "2:cjc133_0452"
    INDEX 01 01:44:24
  TRACK 51 AUDIO
    TITLE "0:"
    INDEX 01 01:46:43
  TRACK 52 AUDIO
    TITLE "2:cjc133_0453"
    INDEX 01 01:47:19
  TRACK 53 AUDIO
    TITLE "2:cjc133_0454"
    INDEX 01 01:50:04
  TRACK 54 AUDIO
    TITLE "2:cjc133_0455"
    INDEX 01 01:53:41
  TRACK 55 AUDIO
    TITLE "0:"
    INDEX 01 01:56:08
  TRACK 56 AUDIO
    TITLE "2:cjc133_0456"
    INDEX 01 01:56:61
  TRACK 57 AUDIO
    TITLE "2:cjc133_0457"
    INDEX 01 01:59:50
  TRACK 58 AUDIO
    TITLE "2:cjc133_0458"
    INDEX 01 02:02:73
  TRACK 59 AUDIO
    TITLE "0:"
    INDEX 01 02:05:36
  TRACK 60 AUDIO
    TITLE "2:cjc133_0459"
    INDEX 01 02:06:06
  TRACK 61 AUDIO
    TITLE "2:cjc133_0460"
    INDEX 01 02:07:67
  TRACK 62 AUDIO
    TITLE "2:cjc133_0461"
    INDEX 01 02:12:09
  TRACK 63 AUDIO
    TITLE "0:"
    INDEX 01 02:15:35
